<?xml version="1.0" encoding="utf-8"?>
<!-- Generator: Adobe Illustrator 19.0.0, SVG Export Plug-In . SVG Version: 6.00 Build 0)  -->
<svg version="1.1" id="图层_1" xmlns="http://www.w3.org/2000/svg" xmlns:xlink="http://www.w3.org/1999/xlink" x="0px" y="0px"
	 viewBox="0 0 557.5 557.5" enable-background="new 0 0 557.5 557.5" xml:space="preserve">
<circle fill="#FFFFFF" cx="278.7" cy="278.7" r="278.7"/>
<g opacity="0.34">
	<defs>
		<circle id="SVGID_1_" opacity="0.34" cx="278.7" cy="278.7" r="278.7"/>
	</defs>
	<clipPath id="SVGID_2_">
		<use xlink:href="#SVGID_1_"  overflow="visible"/>
	</clipPath>
	<g clip-path="url(#SVGID_2_)">
		<g>
			<path fill="#ADAFB2" d="M-36.7,51.8L-36.7,51.8c-3.7-2.1-4.9-6.8-2.8-10.5l21.3-36.9c2.1-3.7,6.8-4.9,10.5-2.8l0,0
				c3.7,2.1,4.9,6.8,2.8,10.5L-26.2,49C-28.4,52.6-33.1,53.9-36.7,51.8z"/>
			<path fill="#ADAFB2" d="M-0.1,51.8L-0.1,51.8c-3.7-2.1-4.9-6.8-2.8-10.5L18.4,4.4c2.1-3.7,6.8-4.9,10.5-2.8l0,0
				c3.7,2.1,4.9,6.8,2.8,10.5L10.4,49C8.3,52.6,3.6,53.9-0.1,51.8z"/>
			<path fill="#ADAFB2" d="M36.6,51.8L36.6,51.8c-3.7-2.1-4.9-6.8-2.8-10.5L55.1,4.4c2.1-3.7,6.8-4.9,10.5-2.8l0,0
				c3.7,2.1,4.9,6.8,2.8,10.5L47.1,49C45,52.6,40.2,53.9,36.6,51.8z"/>
			<path fill="#ADAFB2" d="M73.2,51.8L73.2,51.8c-3.7-2.1-4.9-6.8-2.8-10.5L91.7,4.4c2.1-3.7,6.8-4.9,10.5-2.8l0,0
				c3.7,2.1,4.9,6.8,2.8,10.5L83.7,49C81.6,52.6,76.9,53.9,73.2,51.8z"/>
			<path fill="#ADAFB2" d="M109.9,51.8L109.9,51.8c-3.7-2.1-4.9-6.8-2.8-10.5l21.3-36.9c2.1-3.7,6.8-4.9,10.5-2.8l0,0
				c3.7,2.1,4.9,6.8,2.8,10.5L120.4,49C118.3,52.6,113.6,53.9,109.9,51.8z"/>
			<path fill="#ADAFB2" d="M146.6,51.8L146.6,51.8c-3.7-2.1-4.9-6.8-2.8-10.5l21.3-36.9c2.1-3.7,6.8-4.9,10.5-2.8l0,0
				c3.7,2.1,4.9,6.8,2.8,10.5L157.1,49C155,52.6,150.2,53.9,146.6,51.8z"/>
			<path fill="#ADAFB2" d="M183.2,51.8L183.2,51.8c-3.7-2.1-4.9-6.8-2.8-10.5l21.3-36.9c2.1-3.7,6.8-4.9,10.5-2.8l0,0
				c3.7,2.1,4.9,6.8,2.8,10.5L193.7,49C191.6,52.6,186.9,53.9,183.2,51.8z"/>
			<path fill="#ADAFB2" d="M219.9,51.8L219.9,51.8c-3.7-2.1-4.9-6.8-2.8-10.5l21.3-36.9c2.1-3.7,6.8-4.9,10.5-2.8l0,0
				c3.7,2.1,4.9,6.8,2.8,10.5L230.4,49C228.3,52.6,223.6,53.9,219.9,51.8z"/>
			<path fill="#ADAFB2" d="M256.6,51.8L256.6,51.8c-3.7-2.1-4.9-6.8-2.8-10.5L275,4.4c2.1-3.7,6.8-4.9,10.5-2.8l0,0
				c3.7,2.1,4.9,6.8,2.8,10.5L267.1,49C265,52.6,260.2,53.9,256.6,51.8z"/>
			<path fill="#ADAFB2" d="M293.2,51.8L293.2,51.8c-3.7-2.1-4.9-6.8-2.8-10.5l21.3-36.9c2.1-3.7,6.8-4.9,10.5-2.8l0,0
				c3.7,2.1,4.9,6.8,2.8,10.5L303.7,49C301.6,52.6,296.9,53.9,293.2,51.8z"/>
			<path fill="#ADAFB2" d="M329.9,51.8L329.9,51.8c-3.7-2.1-4.9-6.8-2.8-10.5l21.3-36.9c2.1-3.7,6.8-4.9,10.5-2.8l0,0
				c3.7,2.1,4.9,6.8,2.8,10.5L340.4,49C338.3,52.6,333.5,53.9,329.9,51.8z"/>
			<path fill="#ADAFB2" d="M366.5,51.8L366.5,51.8c-3.7-2.1-4.9-6.8-2.8-10.5L385,4.4c2.1-3.7,6.8-4.9,10.5-2.8l0,0
				c3.7,2.1,4.9,6.8,2.8,10.5L377.1,49C374.9,52.6,370.2,53.9,366.5,51.8z"/>
			<path fill="#ADAFB2" d="M403.2,51.8L403.2,51.8c-3.7-2.1-4.9-6.8-2.8-10.5l21.3-36.9c2.1-3.7,6.8-4.9,10.5-2.8l0,0
				c3.7,2.1,4.9,6.8,2.8,10.5L413.7,49C411.6,52.6,406.9,53.9,403.2,51.8z"/>
			<path fill="#ADAFB2" d="M439.9,51.8L439.9,51.8c-3.7-2.1-4.9-6.8-2.8-10.5l21.3-36.9c2.1-3.7,6.8-4.9,10.5-2.8l0,0
				c3.7,2.1,4.9,6.8,2.8,10.5L450.4,49C448.3,52.6,443.5,53.9,439.9,51.8z"/>
			<path fill="#ADAFB2" d="M476.5,51.8L476.5,51.8c-3.7-2.1-4.9-6.8-2.8-10.5L495,4.4c2.1-3.7,6.8-4.9,10.5-2.8l0,0
				c3.7,2.1,4.9,6.8,2.8,10.5L487,49C484.9,52.6,480.2,53.9,476.5,51.8z"/>
			<path fill="#ADAFB2" d="M513.2,51.8L513.2,51.8c-3.7-2.1-4.9-6.8-2.8-10.5l21.3-36.9c2.1-3.7,6.8-4.9,10.5-2.8l0,0
				c3.7,2.1,4.9,6.8,2.8,10.5L523.7,49C521.6,52.6,516.9,53.9,513.2,51.8z"/>
			<path fill="#ADAFB2" d="M549.9,51.8L549.9,51.8c-3.7-2.1-4.9-6.8-2.8-10.5l21.3-36.9c2.1-3.7,6.8-4.9,10.5-2.8l0,0
				c3.7,2.1,4.9,6.8,2.8,10.5L560.4,49C558.3,52.6,553.5,53.9,549.9,51.8z"/>
			<path fill="#ADAFB2" d="M586.5,51.8L586.5,51.8c-3.7-2.1-4.9-6.8-2.8-10.5L605,4.4c2.1-3.7,6.8-4.9,10.5-2.8l0,0
				c3.7,2.1,4.9,6.8,2.8,10.5L597,49C594.9,52.6,590.2,53.9,586.5,51.8z"/>
		</g>
		<g>
			<path fill="#ADAFB2" d="M-36.7,115.2L-36.7,115.2c-3.7-2.1-4.9-6.8-2.8-10.5l21.3-36.9c2.1-3.7,6.8-4.9,10.5-2.8l0,0
				c3.7,2.1,4.9,6.8,2.8,10.5l-21.3,36.9C-28.4,116.1-33.1,117.3-36.7,115.2z"/>
			<path fill="#ADAFB2" d="M-0.1,115.2L-0.1,115.2c-3.7-2.1-4.9-6.8-2.8-10.5l21.3-36.9c2.1-3.7,6.8-4.9,10.5-2.8l0,0
				c3.7,2.1,4.9,6.8,2.8,10.5l-21.3,36.9C8.3,116.1,3.6,117.3-0.1,115.2z"/>
			<path fill="#ADAFB2" d="M36.6,115.2L36.6,115.2c-3.7-2.1-4.9-6.8-2.8-10.5l21.3-36.9c2.1-3.7,6.8-4.9,10.5-2.8l0,0
				c3.7,2.1,4.9,6.8,2.8,10.5l-21.3,36.9C45,116.1,40.2,117.3,36.6,115.2z"/>
			<path fill="#ADAFB2" d="M73.2,115.2L73.2,115.2c-3.7-2.1-4.9-6.8-2.8-10.5l21.3-36.9c2.1-3.7,6.8-4.9,10.5-2.8l0,0
				c3.7,2.1,4.9,6.8,2.8,10.5l-21.3,36.9C81.6,116.1,76.9,117.3,73.2,115.2z"/>
			<path fill="#ADAFB2" d="M109.9,115.2L109.9,115.2c-3.7-2.1-4.9-6.8-2.8-10.5l21.3-36.9c2.1-3.7,6.8-4.9,10.5-2.8l0,0
				c3.7,2.1,4.9,6.8,2.8,10.5l-21.3,36.9C118.3,116.1,113.6,117.3,109.9,115.2z"/>
			<path fill="#ADAFB2" d="M146.6,115.2L146.6,115.2c-3.7-2.1-4.9-6.8-2.8-10.5l21.3-36.9c2.1-3.7,6.8-4.9,10.5-2.8l0,0
				c3.7,2.1,4.9,6.8,2.8,10.5l-21.3,36.9C155,116.1,150.2,117.3,146.6,115.2z"/>
			<path fill="#ADAFB2" d="M183.2,115.2L183.2,115.2c-3.7-2.1-4.9-6.8-2.8-10.5l21.3-36.9c2.1-3.7,6.8-4.9,10.5-2.8l0,0
				c3.7,2.1,4.9,6.8,2.8,10.5l-21.3,36.9C191.6,116.1,186.9,117.3,183.2,115.2z"/>
			<path fill="#ADAFB2" d="M219.9,115.2L219.9,115.2c-3.7-2.1-4.9-6.8-2.8-10.5l21.3-36.9c2.1-3.7,6.8-4.9,10.5-2.8l0,0
				c3.7,2.1,4.9,6.8,2.8,10.5l-21.3,36.9C228.3,116.1,223.6,117.3,219.9,115.2z"/>
			<path fill="#ADAFB2" d="M256.6,115.2L256.6,115.2c-3.7-2.1-4.9-6.8-2.8-10.5L275,67.8c2.1-3.7,6.8-4.9,10.5-2.8l0,0
				c3.7,2.1,4.9,6.8,2.8,10.5l-21.3,36.9C265,116.1,260.2,117.3,256.6,115.2z"/>
			<path fill="#ADAFB2" d="M293.2,115.2L293.2,115.2c-3.7-2.1-4.9-6.8-2.8-10.5l21.3-36.9c2.1-3.7,6.8-4.9,10.5-2.8l0,0
				c3.7,2.1,4.9,6.8,2.8,10.5l-21.3,36.9C301.6,116.1,296.9,117.3,293.2,115.2z"/>
			<path fill="#ADAFB2" d="M329.9,115.2L329.9,115.2c-3.7-2.1-4.9-6.8-2.8-10.5l21.3-36.9c2.1-3.7,6.8-4.9,10.5-2.8l0,0
				c3.7,2.1,4.9,6.8,2.8,10.5l-21.3,36.9C338.3,116.1,333.5,117.3,329.9,115.2z"/>
			<path fill="#ADAFB2" d="M366.5,115.2L366.5,115.2c-3.7-2.1-4.9-6.8-2.8-10.5L385,67.8c2.1-3.7,6.8-4.9,10.5-2.8l0,0
				c3.7,2.1,4.9,6.8,2.8,10.5l-21.3,36.9C374.9,116.1,370.2,117.3,366.5,115.2z"/>
			<path fill="#ADAFB2" d="M403.2,115.2L403.2,115.2c-3.7-2.1-4.9-6.8-2.8-10.5l21.3-36.9c2.1-3.7,6.8-4.9,10.5-2.8l0,0
				c3.7,2.1,4.9,6.8,2.8,10.5l-21.3,36.9C411.6,116.1,406.9,117.3,403.2,115.2z"/>
			<path fill="#ADAFB2" d="M439.9,115.2L439.9,115.2c-3.7-2.1-4.9-6.8-2.8-10.5l21.3-36.9c2.1-3.7,6.8-4.9,10.5-2.8l0,0
				c3.7,2.1,4.9,6.8,2.8,10.5l-21.3,36.9C448.3,116.1,443.5,117.3,439.9,115.2z"/>
			<path fill="#ADAFB2" d="M476.5,115.2L476.5,115.2c-3.7-2.1-4.9-6.8-2.8-10.5L495,67.8c2.1-3.7,6.8-4.9,10.5-2.8l0,0
				c3.7,2.1,4.9,6.8,2.8,10.5L487,112.4C484.9,116.1,480.2,117.3,476.5,115.2z"/>
			<path fill="#ADAFB2" d="M513.2,115.2L513.2,115.2c-3.7-2.1-4.9-6.8-2.8-10.5l21.3-36.9c2.1-3.7,6.8-4.9,10.5-2.8l0,0
				c3.7,2.1,4.9,6.8,2.8,10.5l-21.3,36.9C521.6,116.1,516.9,117.3,513.2,115.2z"/>
			<path fill="#ADAFB2" d="M549.9,115.2L549.9,115.2c-3.7-2.1-4.9-6.8-2.8-10.5l21.3-36.9c2.1-3.7,6.8-4.9,10.5-2.8l0,0
				c3.7,2.1,4.9,6.8,2.8,10.5l-21.3,36.9C558.3,116.1,553.5,117.3,549.9,115.2z"/>
			<path fill="#ADAFB2" d="M586.5,115.2L586.5,115.2c-3.7-2.1-4.9-6.8-2.8-10.5L605,67.8c2.1-3.7,6.8-4.9,10.5-2.8l0,0
				c3.7,2.1,4.9,6.8,2.8,10.5L597,112.4C594.9,116.1,590.2,117.3,586.5,115.2z"/>
		</g>
		<g>
			<path fill="#ADAFB2" d="M-36.7,178.7L-36.7,178.7c-3.7-2.1-4.9-6.8-2.8-10.5l21.3-36.9c2.1-3.7,6.8-4.9,10.5-2.8l0,0
				c3.7,2.1,4.9,6.8,2.8,10.5l-21.3,36.9C-28.4,179.5-33.1,180.8-36.7,178.7z"/>
			<path fill="#ADAFB2" d="M-0.1,178.7L-0.1,178.7c-3.7-2.1-4.9-6.8-2.8-10.5l21.3-36.9c2.1-3.7,6.8-4.9,10.5-2.8l0,0
				c3.7,2.1,4.9,6.8,2.8,10.5l-21.3,36.9C8.3,179.5,3.6,180.8-0.1,178.7z"/>
			<path fill="#ADAFB2" d="M36.6,178.7L36.6,178.7c-3.7-2.1-4.9-6.8-2.8-10.5l21.3-36.9c2.1-3.7,6.8-4.9,10.5-2.8l0,0
				c3.7,2.1,4.9,6.8,2.8,10.5l-21.3,36.9C45,179.5,40.2,180.8,36.6,178.7z"/>
			<path fill="#ADAFB2" d="M73.2,178.7L73.2,178.7c-3.7-2.1-4.9-6.8-2.8-10.5l21.3-36.9c2.1-3.7,6.8-4.9,10.5-2.8l0,0
				c3.7,2.1,4.9,6.8,2.8,10.5l-21.3,36.9C81.6,179.5,76.9,180.8,73.2,178.7z"/>
			<path fill="#ADAFB2" d="M109.9,178.7L109.9,178.7c-3.7-2.1-4.9-6.8-2.8-10.5l21.3-36.9c2.1-3.7,6.8-4.9,10.5-2.8l0,0
				c3.7,2.1,4.9,6.8,2.8,10.5l-21.3,36.9C118.3,179.5,113.6,180.8,109.9,178.7z"/>
			<path fill="#ADAFB2" d="M146.6,178.7L146.6,178.7c-3.7-2.1-4.9-6.8-2.8-10.5l21.3-36.9c2.1-3.7,6.8-4.9,10.5-2.8l0,0
				c3.7,2.1,4.9,6.8,2.8,10.5l-21.3,36.9C155,179.5,150.2,180.8,146.6,178.7z"/>
			<path fill="#ADAFB2" d="M183.2,178.7L183.2,178.7c-3.7-2.1-4.9-6.8-2.8-10.5l21.3-36.9c2.1-3.7,6.8-4.9,10.5-2.8l0,0
				c3.7,2.1,4.9,6.8,2.8,10.5l-21.3,36.9C191.6,179.5,186.9,180.8,183.2,178.7z"/>
			<path fill="#ADAFB2" d="M219.9,178.7L219.9,178.7c-3.7-2.1-4.9-6.8-2.8-10.5l21.3-36.9c2.1-3.7,6.8-4.9,10.5-2.8l0,0
				c3.7,2.1,4.9,6.8,2.8,10.5l-21.3,36.9C228.3,179.5,223.6,180.8,219.9,178.7z"/>
			<path fill="#ADAFB2" d="M256.6,178.7L256.6,178.7c-3.7-2.1-4.9-6.8-2.8-10.5l21.3-36.9c2.1-3.7,6.8-4.9,10.5-2.8l0,0
				c3.7,2.1,4.9,6.8,2.8,10.5l-21.3,36.9C265,179.5,260.2,180.8,256.6,178.7z"/>
			<path fill="#ADAFB2" d="M293.2,178.7L293.2,178.7c-3.7-2.1-4.9-6.8-2.8-10.5l21.3-36.9c2.1-3.7,6.8-4.9,10.5-2.8l0,0
				c3.7,2.1,4.9,6.8,2.8,10.5l-21.3,36.9C301.6,179.5,296.9,180.8,293.2,178.7z"/>
			<path fill="#ADAFB2" d="M329.9,178.7L329.9,178.7c-3.7-2.1-4.9-6.8-2.8-10.5l21.3-36.9c2.1-3.7,6.8-4.9,10.5-2.8l0,0
				c3.7,2.1,4.9,6.8,2.8,10.5l-21.3,36.9C338.3,179.5,333.5,180.8,329.9,178.7z"/>
			<path fill="#ADAFB2" d="M366.5,178.7L366.5,178.7c-3.7-2.1-4.9-6.8-2.8-10.5l21.3-36.9c2.1-3.7,6.8-4.9,10.5-2.8l0,0
				c3.7,2.1,4.9,6.8,2.8,10.5l-21.3,36.9C374.9,179.5,370.2,180.8,366.5,178.7z"/>
			<path fill="#ADAFB2" d="M403.2,178.7L403.2,178.7c-3.7-2.1-4.9-6.8-2.8-10.5l21.3-36.9c2.1-3.7,6.8-4.9,10.5-2.8l0,0
				c3.7,2.1,4.9,6.8,2.8,10.5l-21.3,36.9C411.6,179.5,406.9,180.8,403.2,178.7z"/>
			<path fill="#ADAFB2" d="M439.9,178.7L439.9,178.7c-3.7-2.1-4.9-6.8-2.8-10.5l21.3-36.9c2.1-3.7,6.8-4.9,10.5-2.8l0,0
				c3.7,2.1,4.9,6.8,2.8,10.5l-21.3,36.9C448.3,179.5,443.5,180.8,439.9,178.7z"/>
			<path fill="#ADAFB2" d="M476.5,178.7L476.5,178.7c-3.7-2.1-4.9-6.8-2.8-10.5l21.3-36.9c2.1-3.7,6.8-4.9,10.5-2.8l0,0
				c3.7,2.1,4.9,6.8,2.8,10.5L487,175.9C484.9,179.5,480.2,180.8,476.5,178.7z"/>
			<path fill="#ADAFB2" d="M513.2,178.7L513.2,178.7c-3.7-2.1-4.9-6.8-2.8-10.5l21.3-36.9c2.1-3.7,6.8-4.9,10.5-2.8l0,0
				c3.7,2.1,4.9,6.8,2.8,10.5l-21.3,36.9C521.6,179.5,516.9,180.8,513.2,178.7z"/>
			<path fill="#ADAFB2" d="M549.9,178.7L549.9,178.7c-3.7-2.1-4.9-6.8-2.8-10.5l21.3-36.9c2.1-3.7,6.8-4.9,10.5-2.8l0,0
				c3.7,2.1,4.9,6.8,2.8,10.5l-21.3,36.9C558.3,179.5,553.5,180.8,549.9,178.7z"/>
			<path fill="#ADAFB2" d="M586.5,178.7L586.5,178.7c-3.7-2.1-4.9-6.8-2.8-10.5l21.3-36.9c2.1-3.7,6.8-4.9,10.5-2.8l0,0
				c3.7,2.1,4.9,6.8,2.8,10.5L597,175.9C594.9,179.5,590.2,180.8,586.5,178.7z"/>
		</g>
		<g>
			<path fill="#ADAFB2" d="M-36.7,242.1L-36.7,242.1c-3.7-2.1-4.9-6.8-2.8-10.5l21.3-36.9c2.1-3.7,6.8-4.9,10.5-2.8l0,0
				c3.7,2.1,4.9,6.8,2.8,10.5l-21.3,36.9C-28.4,243-33.1,244.3-36.7,242.1z"/>
			<path fill="#ADAFB2" d="M-0.1,242.1L-0.1,242.1c-3.7-2.1-4.9-6.8-2.8-10.5l21.3-36.9c2.1-3.7,6.8-4.9,10.5-2.8l0,0
				c3.7,2.1,4.9,6.8,2.8,10.5l-21.3,36.9C8.3,243,3.6,244.3-0.1,242.1z"/>
			<path fill="#ADAFB2" d="M36.6,242.1L36.6,242.1c-3.7-2.1-4.9-6.8-2.8-10.5l21.3-36.9c2.1-3.7,6.8-4.9,10.5-2.8l0,0
				c3.7,2.1,4.9,6.8,2.8,10.5l-21.3,36.9C45,243,40.2,244.3,36.6,242.1z"/>
			<path fill="#ADAFB2" d="M73.2,242.1L73.2,242.1c-3.7-2.1-4.9-6.8-2.8-10.5l21.3-36.9c2.1-3.7,6.8-4.9,10.5-2.8l0,0
				c3.7,2.1,4.9,6.8,2.8,10.5l-21.3,36.9C81.6,243,76.9,244.3,73.2,242.1z"/>
			<path fill="#ADAFB2" d="M109.9,242.1L109.9,242.1c-3.7-2.1-4.9-6.8-2.8-10.5l21.3-36.9c2.1-3.7,6.8-4.9,10.5-2.8l0,0
				c3.7,2.1,4.9,6.8,2.8,10.5l-21.3,36.9C118.3,243,113.6,244.3,109.9,242.1z"/>
			<path fill="#ADAFB2" d="M146.6,242.1L146.6,242.1c-3.7-2.1-4.9-6.8-2.8-10.5l21.3-36.9c2.1-3.7,6.8-4.9,10.5-2.8l0,0
				c3.7,2.1,4.9,6.8,2.8,10.5l-21.3,36.9C155,243,150.2,244.3,146.6,242.1z"/>
			<path fill="#ADAFB2" d="M183.2,242.1L183.2,242.1c-3.7-2.1-4.9-6.8-2.8-10.5l21.3-36.9c2.1-3.7,6.8-4.9,10.5-2.8l0,0
				c3.7,2.1,4.9,6.8,2.8,10.5l-21.3,36.9C191.6,243,186.9,244.3,183.2,242.1z"/>
			<path fill="#ADAFB2" d="M219.9,242.1L219.9,242.1c-3.7-2.1-4.9-6.8-2.8-10.5l21.3-36.9c2.1-3.7,6.8-4.9,10.5-2.8l0,0
				c3.7,2.1,4.9,6.8,2.8,10.5l-21.3,36.9C228.3,243,223.6,244.3,219.9,242.1z"/>
			<path fill="#ADAFB2" d="M256.6,242.1L256.6,242.1c-3.7-2.1-4.9-6.8-2.8-10.5l21.3-36.9c2.1-3.7,6.8-4.9,10.5-2.8l0,0
				c3.7,2.1,4.9,6.8,2.8,10.5l-21.3,36.9C265,243,260.2,244.3,256.6,242.1z"/>
			<path fill="#ADAFB2" d="M293.2,242.1L293.2,242.1c-3.7-2.1-4.9-6.8-2.8-10.5l21.3-36.9c2.1-3.7,6.8-4.9,10.5-2.8l0,0
				c3.7,2.1,4.9,6.8,2.8,10.5l-21.3,36.9C301.6,243,296.9,244.3,293.2,242.1z"/>
			<path fill="#ADAFB2" d="M329.9,242.1L329.9,242.1c-3.7-2.1-4.9-6.8-2.8-10.5l21.3-36.9c2.1-3.7,6.8-4.9,10.5-2.8l0,0
				c3.7,2.1,4.9,6.8,2.8,10.5l-21.3,36.9C338.3,243,333.5,244.3,329.9,242.1z"/>
			<path fill="#ADAFB2" d="M366.5,242.1L366.5,242.1c-3.7-2.1-4.9-6.8-2.8-10.5l21.3-36.9c2.1-3.7,6.8-4.9,10.5-2.8l0,0
				c3.7,2.1,4.9,6.8,2.8,10.5l-21.3,36.9C374.9,243,370.2,244.3,366.5,242.1z"/>
			<path fill="#ADAFB2" d="M403.2,242.1L403.2,242.1c-3.7-2.1-4.9-6.8-2.8-10.5l21.3-36.9c2.1-3.7,6.8-4.9,10.5-2.8l0,0
				c3.7,2.1,4.9,6.8,2.8,10.5l-21.3,36.9C411.6,243,406.9,244.3,403.2,242.1z"/>
			<path fill="#ADAFB2" d="M439.9,242.1L439.9,242.1c-3.7-2.1-4.9-6.8-2.8-10.5l21.3-36.9c2.1-3.7,6.8-4.9,10.5-2.8l0,0
				c3.7,2.1,4.9,6.8,2.8,10.5l-21.3,36.9C448.3,243,443.5,244.3,439.9,242.1z"/>
			<path fill="#ADAFB2" d="M476.5,242.1L476.5,242.1c-3.7-2.1-4.9-6.8-2.8-10.5l21.3-36.9c2.1-3.7,6.8-4.9,10.5-2.8l0,0
				c3.7,2.1,4.9,6.8,2.8,10.5L487,239.3C484.9,243,480.2,244.3,476.5,242.1z"/>
			<path fill="#ADAFB2" d="M513.2,242.1L513.2,242.1c-3.7-2.1-4.9-6.8-2.8-10.5l21.3-36.9c2.1-3.7,6.8-4.9,10.5-2.8l0,0
				c3.7,2.1,4.9,6.8,2.8,10.5l-21.3,36.9C521.6,243,516.9,244.3,513.2,242.1z"/>
			<path fill="#ADAFB2" d="M549.9,242.1L549.9,242.1c-3.7-2.1-4.9-6.8-2.8-10.5l21.3-36.9c2.1-3.7,6.8-4.9,10.5-2.8l0,0
				c3.7,2.1,4.9,6.8,2.8,10.5l-21.3,36.9C558.3,243,553.5,244.3,549.9,242.1z"/>
			<path fill="#ADAFB2" d="M586.5,242.1L586.5,242.1c-3.7-2.1-4.9-6.8-2.8-10.5l21.3-36.9c2.1-3.7,6.8-4.9,10.5-2.8l0,0
				c3.7,2.1,4.9,6.8,2.8,10.5L597,239.3C594.9,243,590.2,244.3,586.5,242.1z"/>
		</g>
		<g>
			<path fill="#ADAFB2" d="M-36.7,305.6L-36.7,305.6c-3.7-2.1-4.9-6.8-2.8-10.5l21.3-36.9c2.1-3.7,6.8-4.9,10.5-2.8l0,0
				c3.7,2.1,4.9,6.8,2.8,10.5l-21.3,36.9C-28.4,306.5-33.1,307.7-36.7,305.6z"/>
			<path fill="#ADAFB2" d="M-0.1,305.6L-0.1,305.6c-3.7-2.1-4.9-6.8-2.8-10.5l21.3-36.9c2.1-3.7,6.8-4.9,10.5-2.8l0,0
				c3.7,2.1,4.9,6.8,2.8,10.5l-21.3,36.9C8.3,306.5,3.6,307.7-0.1,305.6z"/>
			<path fill="#ADAFB2" d="M36.6,305.6L36.6,305.6c-3.7-2.1-4.9-6.8-2.8-10.5l21.3-36.9c2.1-3.7,6.8-4.9,10.5-2.8l0,0
				c3.7,2.1,4.9,6.8,2.8,10.5l-21.3,36.9C45,306.5,40.2,307.7,36.6,305.6z"/>
			<path fill="#ADAFB2" d="M73.2,305.6L73.2,305.6c-3.7-2.1-4.9-6.8-2.8-10.5l21.3-36.9c2.1-3.7,6.8-4.9,10.5-2.8l0,0
				c3.7,2.1,4.9,6.8,2.8,10.5l-21.3,36.9C81.6,306.5,76.9,307.7,73.2,305.6z"/>
			<path fill="#ADAFB2" d="M109.9,305.6L109.9,305.6c-3.7-2.1-4.9-6.8-2.8-10.5l21.3-36.9c2.1-3.7,6.8-4.9,10.5-2.8l0,0
				c3.7,2.1,4.9,6.8,2.8,10.5l-21.3,36.9C118.3,306.5,113.6,307.7,109.9,305.6z"/>
			<path fill="#ADAFB2" d="M146.6,305.6L146.6,305.6c-3.7-2.1-4.9-6.8-2.8-10.5l21.3-36.9c2.1-3.7,6.8-4.9,10.5-2.8l0,0
				c3.7,2.1,4.9,6.8,2.8,10.5l-21.3,36.9C155,306.5,150.2,307.7,146.6,305.6z"/>
			<path fill="#ADAFB2" d="M183.2,305.6L183.2,305.6c-3.7-2.1-4.9-6.8-2.8-10.5l21.3-36.9c2.1-3.7,6.8-4.9,10.5-2.8l0,0
				c3.7,2.1,4.9,6.8,2.8,10.5l-21.3,36.9C191.6,306.5,186.9,307.7,183.2,305.6z"/>
			<path fill="#ADAFB2" d="M219.9,305.6L219.9,305.6c-3.7-2.1-4.9-6.8-2.8-10.5l21.3-36.9c2.1-3.7,6.8-4.9,10.5-2.8l0,0
				c3.7,2.1,4.9,6.8,2.8,10.5l-21.3,36.9C228.3,306.5,223.6,307.7,219.9,305.6z"/>
			<path fill="#ADAFB2" d="M256.6,305.6L256.6,305.6c-3.7-2.1-4.9-6.8-2.8-10.5l21.3-36.9c2.1-3.7,6.8-4.9,10.5-2.8l0,0
				c3.7,2.1,4.9,6.8,2.8,10.5l-21.3,36.9C265,306.5,260.2,307.7,256.6,305.6z"/>
			<path fill="#ADAFB2" d="M293.2,305.6L293.2,305.6c-3.7-2.1-4.9-6.8-2.8-10.5l21.3-36.9c2.1-3.7,6.8-4.9,10.5-2.8l0,0
				c3.7,2.1,4.9,6.8,2.8,10.5l-21.3,36.9C301.6,306.5,296.9,307.7,293.2,305.6z"/>
			<path fill="#ADAFB2" d="M329.9,305.6L329.9,305.6c-3.7-2.1-4.9-6.8-2.8-10.5l21.3-36.9c2.1-3.7,6.8-4.9,10.5-2.8l0,0
				c3.7,2.1,4.9,6.8,2.8,10.5l-21.3,36.9C338.3,306.5,333.5,307.7,329.9,305.6z"/>
			<path fill="#ADAFB2" d="M366.5,305.6L366.5,305.6c-3.7-2.1-4.9-6.8-2.8-10.5l21.3-36.9c2.1-3.7,6.8-4.9,10.5-2.8l0,0
				c3.7,2.1,4.9,6.8,2.8,10.5l-21.3,36.9C374.9,306.5,370.2,307.7,366.5,305.6z"/>
			<path fill="#ADAFB2" d="M403.2,305.6L403.2,305.6c-3.7-2.1-4.9-6.8-2.8-10.5l21.3-36.9c2.1-3.7,6.8-4.9,10.5-2.8l0,0
				c3.7,2.1,4.9,6.8,2.8,10.5l-21.3,36.9C411.6,306.5,406.9,307.7,403.2,305.6z"/>
			<path fill="#ADAFB2" d="M439.9,305.6L439.9,305.6c-3.7-2.1-4.9-6.8-2.8-10.5l21.3-36.9c2.1-3.7,6.8-4.9,10.5-2.8l0,0
				c3.7,2.1,4.9,6.8,2.8,10.5l-21.3,36.9C448.3,306.5,443.5,307.7,439.9,305.6z"/>
			<path fill="#ADAFB2" d="M476.5,305.6L476.5,305.6c-3.7-2.1-4.9-6.8-2.8-10.5l21.3-36.9c2.1-3.7,6.8-4.9,10.5-2.8l0,0
				c3.7,2.1,4.9,6.8,2.8,10.5L487,302.8C484.9,306.5,480.2,307.7,476.5,305.6z"/>
			<path fill="#ADAFB2" d="M513.2,305.6L513.2,305.6c-3.7-2.1-4.9-6.8-2.8-10.5l21.3-36.9c2.1-3.7,6.8-4.9,10.5-2.8l0,0
				c3.7,2.1,4.9,6.8,2.8,10.5l-21.3,36.9C521.6,306.5,516.9,307.7,513.2,305.6z"/>
			<path fill="#ADAFB2" d="M549.9,305.6L549.9,305.6c-3.7-2.1-4.9-6.8-2.8-10.5l21.3-36.9c2.1-3.7,6.8-4.9,10.5-2.8l0,0
				c3.7,2.1,4.9,6.8,2.8,10.5l-21.3,36.9C558.3,306.5,553.5,307.7,549.9,305.6z"/>
			<path fill="#ADAFB2" d="M586.5,305.6L586.5,305.6c-3.7-2.1-4.9-6.8-2.8-10.5l21.3-36.9c2.1-3.7,6.8-4.9,10.5-2.8l0,0
				c3.7,2.1,4.9,6.8,2.8,10.5L597,302.8C594.9,306.5,590.2,307.7,586.5,305.6z"/>
		</g>
		<g>
			<path fill="#ADAFB2" d="M-36.7,369.1L-36.7,369.1c-3.7-2.1-4.9-6.8-2.8-10.5l21.3-36.9c2.1-3.7,6.8-4.9,10.5-2.8l0,0
				c3.7,2.1,4.9,6.8,2.8,10.5l-21.3,36.9C-28.4,369.9-33.1,371.2-36.7,369.1z"/>
			<path fill="#ADAFB2" d="M-0.1,369.1L-0.1,369.1c-3.7-2.1-4.9-6.8-2.8-10.5l21.3-36.9c2.1-3.7,6.8-4.9,10.5-2.8l0,0
				c3.7,2.1,4.9,6.8,2.8,10.5l-21.3,36.9C8.3,369.9,3.6,371.2-0.1,369.1z"/>
			<path fill="#ADAFB2" d="M36.6,369.1L36.6,369.1c-3.7-2.1-4.9-6.8-2.8-10.5l21.3-36.9c2.1-3.7,6.8-4.9,10.5-2.8l0,0
				c3.7,2.1,4.9,6.8,2.8,10.5l-21.3,36.9C45,369.9,40.2,371.2,36.6,369.1z"/>
			<path fill="#ADAFB2" d="M73.2,369.1L73.2,369.1c-3.7-2.1-4.9-6.8-2.8-10.5l21.3-36.9c2.1-3.7,6.8-4.9,10.5-2.8l0,0
				c3.7,2.1,4.9,6.8,2.8,10.5l-21.3,36.9C81.6,369.9,76.9,371.2,73.2,369.1z"/>
			<path fill="#ADAFB2" d="M109.9,369.1L109.9,369.1c-3.7-2.1-4.9-6.8-2.8-10.5l21.3-36.9c2.1-3.7,6.8-4.9,10.5-2.8l0,0
				c3.7,2.1,4.9,6.8,2.8,10.5l-21.3,36.9C118.3,369.9,113.6,371.2,109.9,369.1z"/>
			<path fill="#ADAFB2" d="M146.6,369.1L146.6,369.1c-3.7-2.1-4.9-6.8-2.8-10.5l21.3-36.9c2.1-3.7,6.8-4.9,10.5-2.8l0,0
				c3.7,2.1,4.9,6.8,2.8,10.5l-21.3,36.9C155,369.9,150.2,371.2,146.6,369.1z"/>
			<path fill="#ADAFB2" d="M183.2,369.1L183.2,369.1c-3.7-2.1-4.9-6.8-2.8-10.5l21.3-36.9c2.1-3.7,6.8-4.9,10.5-2.8l0,0
				c3.7,2.1,4.9,6.8,2.8,10.5l-21.3,36.9C191.6,369.9,186.9,371.2,183.2,369.1z"/>
			<path fill="#ADAFB2" d="M219.9,369.1L219.9,369.1c-3.7-2.1-4.9-6.8-2.8-10.5l21.3-36.9c2.1-3.7,6.8-4.9,10.5-2.8l0,0
				c3.7,2.1,4.9,6.8,2.8,10.5l-21.3,36.9C228.3,369.9,223.6,371.2,219.9,369.1z"/>
			<path fill="#ADAFB2" d="M256.6,369.1L256.6,369.1c-3.7-2.1-4.9-6.8-2.8-10.5l21.3-36.9c2.1-3.7,6.8-4.9,10.5-2.8l0,0
				c3.7,2.1,4.9,6.8,2.8,10.5l-21.3,36.9C265,369.9,260.2,371.2,256.6,369.1z"/>
			<path fill="#ADAFB2" d="M293.2,369.1L293.2,369.1c-3.7-2.1-4.9-6.8-2.8-10.5l21.3-36.9c2.1-3.7,6.8-4.9,10.5-2.8l0,0
				c3.7,2.1,4.9,6.8,2.8,10.5l-21.3,36.9C301.6,369.9,296.9,371.2,293.2,369.1z"/>
			<path fill="#ADAFB2" d="M329.9,369.1L329.9,369.1c-3.7-2.1-4.9-6.8-2.8-10.5l21.3-36.9c2.1-3.7,6.8-4.9,10.5-2.8l0,0
				c3.7,2.1,4.9,6.8,2.8,10.5l-21.3,36.9C338.3,369.9,333.5,371.2,329.9,369.1z"/>
			<path fill="#ADAFB2" d="M366.5,369.1L366.5,369.1c-3.7-2.1-4.9-6.8-2.8-10.5l21.3-36.9c2.1-3.7,6.8-4.9,10.5-2.8l0,0
				c3.7,2.1,4.9,6.8,2.8,10.5l-21.3,36.9C374.9,369.9,370.2,371.2,366.5,369.1z"/>
			<path fill="#ADAFB2" d="M403.2,369.1L403.2,369.1c-3.7-2.1-4.9-6.8-2.8-10.5l21.3-36.9c2.1-3.7,6.8-4.9,10.5-2.8l0,0
				c3.7,2.1,4.9,6.8,2.8,10.5l-21.3,36.9C411.6,369.9,406.9,371.2,403.2,369.1z"/>
			<path fill="#ADAFB2" d="M439.9,369.1L439.9,369.1c-3.7-2.1-4.9-6.8-2.8-10.5l21.3-36.9c2.1-3.7,6.8-4.9,10.5-2.8l0,0
				c3.7,2.1,4.9,6.8,2.8,10.5l-21.3,36.9C448.3,369.9,443.5,371.2,439.9,369.1z"/>
			<path fill="#ADAFB2" d="M476.5,369.1L476.5,369.1c-3.7-2.1-4.9-6.8-2.8-10.5l21.3-36.9c2.1-3.7,6.8-4.9,10.5-2.8l0,0
				c3.7,2.1,4.9,6.8,2.8,10.5L487,366.2C484.9,369.9,480.2,371.2,476.5,369.1z"/>
			<path fill="#ADAFB2" d="M513.2,369.1L513.2,369.1c-3.7-2.1-4.9-6.8-2.8-10.5l21.3-36.9c2.1-3.7,6.8-4.9,10.5-2.8l0,0
				c3.7,2.1,4.9,6.8,2.8,10.5l-21.3,36.9C521.6,369.9,516.9,371.2,513.2,369.1z"/>
			<path fill="#ADAFB2" d="M549.9,369.1L549.9,369.1c-3.7-2.1-4.9-6.8-2.8-10.5l21.3-36.9c2.1-3.7,6.8-4.9,10.5-2.8l0,0
				c3.7,2.1,4.9,6.8,2.8,10.5l-21.3,36.9C558.3,369.9,553.5,371.2,549.9,369.1z"/>
			<path fill="#ADAFB2" d="M586.5,369.1L586.5,369.1c-3.7-2.1-4.9-6.8-2.8-10.5l21.3-36.9c2.1-3.7,6.8-4.9,10.5-2.8l0,0
				c3.7,2.1,4.9,6.8,2.8,10.5L597,366.2C594.9,369.9,590.2,371.2,586.5,369.1z"/>
		</g>
		<g>
			<path fill="#ADAFB2" d="M-36.7,432.5L-36.7,432.5c-3.7-2.1-4.9-6.8-2.8-10.5l21.3-36.9c2.1-3.7,6.8-4.9,10.5-2.8l0,0
				c3.7,2.1,4.9,6.8,2.8,10.5l-21.3,36.9C-28.4,433.4-33.1,434.6-36.7,432.5z"/>
			<path fill="#ADAFB2" d="M-0.1,432.5L-0.1,432.5c-3.7-2.1-4.9-6.8-2.8-10.5l21.3-36.9c2.1-3.7,6.8-4.9,10.5-2.8l0,0
				c3.7,2.1,4.9,6.8,2.8,10.5l-21.3,36.9C8.3,433.4,3.6,434.6-0.1,432.5z"/>
			<path fill="#ADAFB2" d="M36.6,432.5L36.6,432.5c-3.7-2.1-4.9-6.8-2.8-10.5l21.3-36.9c2.1-3.7,6.8-4.9,10.5-2.8l0,0
				c3.7,2.1,4.9,6.8,2.8,10.5l-21.3,36.9C45,433.4,40.2,434.6,36.6,432.5z"/>
			<path fill="#ADAFB2" d="M73.2,432.5L73.2,432.5c-3.7-2.1-4.9-6.8-2.8-10.5l21.3-36.9c2.1-3.7,6.8-4.9,10.5-2.8l0,0
				c3.7,2.1,4.9,6.8,2.8,10.5l-21.3,36.9C81.6,433.4,76.9,434.6,73.2,432.5z"/>
			<path fill="#ADAFB2" d="M109.9,432.5L109.9,432.5c-3.7-2.1-4.9-6.8-2.8-10.5l21.3-36.9c2.1-3.7,6.8-4.9,10.5-2.8l0,0
				c3.7,2.1,4.9,6.8,2.8,10.5l-21.3,36.9C118.3,433.4,113.6,434.6,109.9,432.5z"/>
			<path fill="#ADAFB2" d="M146.6,432.5L146.6,432.5c-3.7-2.1-4.9-6.8-2.8-10.5l21.3-36.9c2.1-3.7,6.8-4.9,10.5-2.8l0,0
				c3.7,2.1,4.9,6.8,2.8,10.5l-21.3,36.9C155,433.4,150.2,434.6,146.6,432.5z"/>
			<path fill="#ADAFB2" d="M183.2,432.5L183.2,432.5c-3.7-2.1-4.9-6.8-2.8-10.5l21.3-36.9c2.1-3.7,6.8-4.9,10.5-2.8l0,0
				c3.7,2.1,4.9,6.8,2.8,10.5l-21.3,36.9C191.6,433.4,186.9,434.6,183.2,432.5z"/>
			<path fill="#ADAFB2" d="M219.9,432.5L219.9,432.5c-3.7-2.1-4.9-6.8-2.8-10.5l21.3-36.9c2.1-3.7,6.8-4.9,10.5-2.8l0,0
				c3.7,2.1,4.9,6.8,2.8,10.5l-21.3,36.9C228.3,433.4,223.6,434.6,219.9,432.5z"/>
			<path fill="#ADAFB2" d="M256.6,432.5L256.6,432.5c-3.7-2.1-4.9-6.8-2.8-10.5l21.3-36.9c2.1-3.7,6.8-4.9,10.5-2.8l0,0
				c3.7,2.1,4.9,6.8,2.8,10.5l-21.3,36.9C265,433.4,260.2,434.6,256.6,432.5z"/>
			<path fill="#ADAFB2" d="M293.2,432.5L293.2,432.5c-3.7-2.1-4.9-6.8-2.8-10.5l21.3-36.9c2.1-3.7,6.8-4.9,10.5-2.8l0,0
				c3.7,2.1,4.9,6.8,2.8,10.5l-21.3,36.9C301.6,433.4,296.9,434.6,293.2,432.5z"/>
			<path fill="#ADAFB2" d="M329.9,432.5L329.9,432.5c-3.7-2.1-4.9-6.8-2.8-10.5l21.3-36.9c2.1-3.7,6.8-4.9,10.5-2.8l0,0
				c3.7,2.1,4.9,6.8,2.8,10.5l-21.3,36.9C338.3,433.4,333.5,434.6,329.9,432.5z"/>
			<path fill="#ADAFB2" d="M366.5,432.5L366.5,432.5c-3.7-2.1-4.9-6.8-2.8-10.5l21.3-36.9c2.1-3.7,6.8-4.9,10.5-2.8l0,0
				c3.7,2.1,4.9,6.8,2.8,10.5l-21.3,36.9C374.9,433.4,370.2,434.6,366.5,432.5z"/>
			<path fill="#ADAFB2" d="M403.2,432.5L403.2,432.5c-3.7-2.1-4.9-6.8-2.8-10.5l21.3-36.9c2.1-3.7,6.8-4.9,10.5-2.8l0,0
				c3.7,2.1,4.9,6.8,2.8,10.5l-21.3,36.9C411.6,433.4,406.9,434.6,403.2,432.5z"/>
			<path fill="#ADAFB2" d="M439.9,432.5L439.9,432.5c-3.7-2.1-4.9-6.8-2.8-10.5l21.3-36.9c2.1-3.7,6.8-4.9,10.5-2.8l0,0
				c3.7,2.1,4.9,6.8,2.8,10.5l-21.3,36.9C448.3,433.4,443.5,434.6,439.9,432.5z"/>
			<path fill="#ADAFB2" d="M476.5,432.5L476.5,432.5c-3.7-2.1-4.9-6.8-2.8-10.5l21.3-36.9c2.1-3.7,6.8-4.9,10.5-2.8l0,0
				c3.7,2.1,4.9,6.8,2.8,10.5L487,429.7C484.9,433.4,480.2,434.6,476.5,432.5z"/>
			<path fill="#ADAFB2" d="M513.2,432.5L513.2,432.5c-3.7-2.1-4.9-6.8-2.8-10.5l21.3-36.9c2.1-3.7,6.8-4.9,10.5-2.8l0,0
				c3.7,2.1,4.9,6.8,2.8,10.5l-21.3,36.9C521.6,433.4,516.9,434.6,513.2,432.5z"/>
			<path fill="#ADAFB2" d="M549.9,432.5L549.9,432.5c-3.7-2.1-4.9-6.8-2.8-10.5l21.3-36.9c2.1-3.7,6.8-4.9,10.5-2.8l0,0
				c3.7,2.1,4.9,6.8,2.8,10.5l-21.3,36.9C558.3,433.4,553.5,434.6,549.9,432.5z"/>
			<path fill="#ADAFB2" d="M586.5,432.5L586.5,432.5c-3.7-2.1-4.9-6.8-2.8-10.5l21.3-36.9c2.1-3.7,6.8-4.9,10.5-2.8l0,0
				c3.7,2.1,4.9,6.8,2.8,10.5L597,429.7C594.9,433.4,590.2,434.6,586.5,432.5z"/>
		</g>
		<g>
			<path fill="#ADAFB2" d="M-36.7,496L-36.7,496c-3.7-2.1-4.9-6.8-2.8-10.5l21.3-36.9c2.1-3.7,6.8-4.9,10.5-2.8l0,0
				c3.7,2.1,4.9,6.8,2.8,10.5l-21.3,36.9C-28.4,496.8-33.1,498.1-36.7,496z"/>
			<path fill="#ADAFB2" d="M-0.1,496L-0.1,496c-3.7-2.1-4.9-6.8-2.8-10.5l21.3-36.9c2.1-3.7,6.8-4.9,10.5-2.8l0,0
				c3.7,2.1,4.9,6.8,2.8,10.5l-21.3,36.9C8.3,496.8,3.6,498.1-0.1,496z"/>
			<path fill="#ADAFB2" d="M36.6,496L36.6,496c-3.7-2.1-4.9-6.8-2.8-10.5l21.3-36.9c2.1-3.7,6.8-4.9,10.5-2.8l0,0
				c3.7,2.1,4.9,6.8,2.8,10.5l-21.3,36.9C45,496.8,40.2,498.1,36.6,496z"/>
			<path fill="#ADAFB2" d="M73.2,496L73.2,496c-3.7-2.1-4.9-6.8-2.8-10.5l21.3-36.9c2.1-3.7,6.8-4.9,10.5-2.8l0,0
				c3.7,2.1,4.9,6.8,2.8,10.5l-21.3,36.9C81.6,496.8,76.9,498.1,73.2,496z"/>
			<path fill="#ADAFB2" d="M109.9,496L109.9,496c-3.7-2.1-4.9-6.8-2.8-10.5l21.3-36.9c2.1-3.7,6.8-4.9,10.5-2.8l0,0
				c3.7,2.1,4.9,6.8,2.8,10.5l-21.3,36.9C118.3,496.8,113.6,498.1,109.9,496z"/>
			<path fill="#ADAFB2" d="M146.6,496L146.6,496c-3.7-2.1-4.9-6.8-2.8-10.5l21.3-36.9c2.1-3.7,6.8-4.9,10.5-2.8l0,0
				c3.7,2.1,4.9,6.8,2.8,10.5l-21.3,36.9C155,496.8,150.2,498.1,146.6,496z"/>
			<path fill="#ADAFB2" d="M183.2,496L183.2,496c-3.7-2.1-4.9-6.8-2.8-10.5l21.3-36.9c2.1-3.7,6.8-4.9,10.5-2.8l0,0
				c3.7,2.1,4.9,6.8,2.8,10.5l-21.3,36.9C191.6,496.8,186.9,498.1,183.2,496z"/>
			<path fill="#ADAFB2" d="M219.9,496L219.9,496c-3.7-2.1-4.9-6.8-2.8-10.5l21.3-36.9c2.1-3.7,6.8-4.9,10.5-2.8l0,0
				c3.7,2.1,4.9,6.8,2.8,10.5l-21.3,36.9C228.3,496.8,223.6,498.1,219.9,496z"/>
			<path fill="#ADAFB2" d="M256.6,496L256.6,496c-3.7-2.1-4.9-6.8-2.8-10.5l21.3-36.9c2.1-3.7,6.8-4.9,10.5-2.8l0,0
				c3.7,2.1,4.9,6.8,2.8,10.5l-21.3,36.9C265,496.8,260.2,498.1,256.6,496z"/>
			<path fill="#ADAFB2" d="M293.2,496L293.2,496c-3.7-2.1-4.9-6.8-2.8-10.5l21.3-36.9c2.1-3.7,6.8-4.9,10.5-2.8l0,0
				c3.7,2.1,4.9,6.8,2.8,10.5l-21.3,36.9C301.6,496.8,296.9,498.1,293.2,496z"/>
			<path fill="#ADAFB2" d="M329.9,496L329.9,496c-3.7-2.1-4.9-6.8-2.8-10.5l21.3-36.9c2.1-3.7,6.8-4.9,10.5-2.8l0,0
				c3.7,2.1,4.9,6.8,2.8,10.5l-21.3,36.9C338.3,496.8,333.5,498.1,329.9,496z"/>
			<path fill="#ADAFB2" d="M366.5,496L366.5,496c-3.7-2.1-4.9-6.8-2.8-10.5l21.3-36.9c2.1-3.7,6.8-4.9,10.5-2.8l0,0
				c3.7,2.1,4.9,6.8,2.8,10.5l-21.3,36.9C374.9,496.8,370.2,498.1,366.5,496z"/>
			<path fill="#ADAFB2" d="M403.2,496L403.2,496c-3.7-2.1-4.9-6.8-2.8-10.5l21.3-36.9c2.1-3.7,6.8-4.9,10.5-2.8l0,0
				c3.7,2.1,4.9,6.8,2.8,10.5l-21.3,36.9C411.6,496.8,406.9,498.1,403.2,496z"/>
			<path fill="#ADAFB2" d="M439.9,496L439.9,496c-3.7-2.1-4.9-6.8-2.8-10.5l21.3-36.9c2.1-3.7,6.8-4.9,10.5-2.8l0,0
				c3.7,2.1,4.9,6.8,2.8,10.5l-21.3,36.9C448.3,496.8,443.5,498.1,439.9,496z"/>
			<path fill="#ADAFB2" d="M476.5,496L476.5,496c-3.7-2.1-4.9-6.8-2.8-10.5l21.3-36.9c2.1-3.7,6.8-4.9,10.5-2.8l0,0
				c3.7,2.1,4.9,6.8,2.8,10.5L487,493.2C484.9,496.8,480.2,498.1,476.5,496z"/>
			<path fill="#ADAFB2" d="M513.2,496L513.2,496c-3.7-2.1-4.9-6.8-2.8-10.5l21.3-36.9c2.1-3.7,6.8-4.9,10.5-2.8l0,0
				c3.7,2.1,4.9,6.8,2.8,10.5l-21.3,36.9C521.6,496.8,516.9,498.1,513.2,496z"/>
			<path fill="#ADAFB2" d="M549.9,496L549.9,496c-3.7-2.1-4.9-6.8-2.8-10.5l21.3-36.9c2.1-3.7,6.8-4.9,10.5-2.8l0,0
				c3.7,2.1,4.9,6.8,2.8,10.5l-21.3,36.9C558.3,496.8,553.5,498.1,549.9,496z"/>
			<path fill="#ADAFB2" d="M586.5,496L586.5,496c-3.7-2.1-4.9-6.8-2.8-10.5l21.3-36.9c2.1-3.7,6.8-4.9,10.5-2.8l0,0
				c3.7,2.1,4.9,6.8,2.8,10.5L597,493.2C594.9,496.8,590.2,498.1,586.5,496z"/>
		</g>
		<g>
			<path fill="#ADAFB2" d="M-36.7,559.4L-36.7,559.4c-3.7-2.1-4.9-6.8-2.8-10.5l21.3-36.9c2.1-3.7,6.8-4.9,10.5-2.8l0,0
				c3.7,2.1,4.9,6.8,2.8,10.5l-21.3,36.9C-28.4,560.3-33.1,561.6-36.7,559.4z"/>
			<path fill="#ADAFB2" d="M-0.1,559.4L-0.1,559.4c-3.7-2.1-4.9-6.8-2.8-10.5l21.3-36.9c2.1-3.7,6.8-4.9,10.5-2.8l0,0
				c3.7,2.1,4.9,6.8,2.8,10.5l-21.3,36.9C8.3,560.3,3.6,561.6-0.1,559.4z"/>
			<path fill="#ADAFB2" d="M36.6,559.4L36.6,559.4c-3.7-2.1-4.9-6.8-2.8-10.5l21.3-36.9c2.1-3.7,6.8-4.9,10.5-2.8l0,0
				c3.7,2.1,4.9,6.8,2.8,10.5l-21.3,36.9C45,560.3,40.2,561.6,36.6,559.4z"/>
			<path fill="#ADAFB2" d="M73.2,559.4L73.2,559.4c-3.7-2.1-4.9-6.8-2.8-10.5l21.3-36.9c2.1-3.7,6.8-4.9,10.5-2.8l0,0
				c3.7,2.1,4.9,6.8,2.8,10.5l-21.3,36.9C81.6,560.3,76.9,561.6,73.2,559.4z"/>
			<path fill="#ADAFB2" d="M109.9,559.4L109.9,559.4c-3.7-2.1-4.9-6.8-2.8-10.5l21.3-36.9c2.1-3.7,6.8-4.9,10.5-2.8l0,0
				c3.7,2.1,4.9,6.8,2.8,10.5l-21.3,36.9C118.3,560.3,113.6,561.6,109.9,559.4z"/>
			<path fill="#ADAFB2" d="M146.6,559.4L146.6,559.4c-3.7-2.1-4.9-6.8-2.8-10.5l21.3-36.9c2.1-3.7,6.8-4.9,10.5-2.8l0,0
				c3.7,2.1,4.9,6.8,2.8,10.5l-21.3,36.9C155,560.3,150.2,561.6,146.6,559.4z"/>
			<path fill="#ADAFB2" d="M183.2,559.4L183.2,559.4c-3.7-2.1-4.9-6.8-2.8-10.5l21.3-36.9c2.1-3.7,6.8-4.9,10.5-2.8l0,0
				c3.7,2.1,4.9,6.8,2.8,10.5l-21.3,36.9C191.6,560.3,186.9,561.6,183.2,559.4z"/>
			<path fill="#ADAFB2" d="M219.9,559.4L219.9,559.4c-3.7-2.1-4.9-6.8-2.8-10.5l21.3-36.9c2.1-3.7,6.8-4.9,10.5-2.8l0,0
				c3.7,2.1,4.9,6.8,2.8,10.5l-21.3,36.9C228.3,560.3,223.6,561.6,219.9,559.4z"/>
			<path fill="#ADAFB2" d="M256.6,559.4L256.6,559.4c-3.7-2.1-4.9-6.8-2.8-10.5l21.3-36.9c2.1-3.7,6.8-4.9,10.5-2.8l0,0
				c3.7,2.1,4.9,6.8,2.8,10.5l-21.3,36.9C265,560.3,260.2,561.6,256.6,559.4z"/>
			<path fill="#ADAFB2" d="M293.2,559.4L293.2,559.4c-3.7-2.1-4.9-6.8-2.8-10.5l21.3-36.9c2.1-3.7,6.8-4.9,10.5-2.8l0,0
				c3.7,2.1,4.9,6.8,2.8,10.5l-21.3,36.9C301.6,560.3,296.9,561.6,293.2,559.4z"/>
			<path fill="#ADAFB2" d="M329.9,559.4L329.9,559.4c-3.7-2.1-4.9-6.8-2.8-10.5l21.3-36.9c2.1-3.7,6.8-4.9,10.5-2.8l0,0
				c3.7,2.1,4.9,6.8,2.8,10.5l-21.3,36.9C338.3,560.3,333.5,561.6,329.9,559.4z"/>
			<path fill="#ADAFB2" d="M366.5,559.4L366.5,559.4c-3.7-2.1-4.9-6.8-2.8-10.5l21.3-36.9c2.1-3.7,6.8-4.9,10.5-2.8l0,0
				c3.7,2.1,4.9,6.8,2.8,10.5l-21.3,36.9C374.9,560.3,370.2,561.6,366.5,559.4z"/>
			<path fill="#ADAFB2" d="M403.2,559.4L403.2,559.4c-3.7-2.1-4.9-6.8-2.8-10.5l21.3-36.9c2.1-3.7,6.8-4.9,10.5-2.8l0,0
				c3.7,2.1,4.9,6.8,2.8,10.5l-21.3,36.9C411.6,560.3,406.9,561.6,403.2,559.4z"/>
			<path fill="#ADAFB2" d="M439.9,559.4L439.9,559.4c-3.7-2.1-4.9-6.8-2.8-10.5l21.3-36.9c2.1-3.7,6.8-4.9,10.5-2.8l0,0
				c3.7,2.1,4.9,6.8,2.8,10.5l-21.3,36.9C448.3,560.3,443.5,561.6,439.9,559.4z"/>
			<path fill="#ADAFB2" d="M476.5,559.4L476.5,559.4c-3.7-2.1-4.9-6.8-2.8-10.5l21.3-36.9c2.1-3.7,6.8-4.9,10.5-2.8l0,0
				c3.7,2.1,4.9,6.8,2.8,10.5L487,556.6C484.9,560.3,480.2,561.6,476.5,559.4z"/>
			<path fill="#ADAFB2" d="M513.2,559.4L513.2,559.4c-3.7-2.1-4.9-6.8-2.8-10.5l21.3-36.9c2.1-3.7,6.8-4.9,10.5-2.8l0,0
				c3.7,2.1,4.9,6.8,2.8,10.5l-21.3,36.9C521.6,560.3,516.9,561.6,513.2,559.4z"/>
			<path fill="#ADAFB2" d="M549.9,559.4L549.9,559.4c-3.7-2.1-4.9-6.8-2.8-10.5l21.3-36.9c2.1-3.7,6.8-4.9,10.5-2.8l0,0
				c3.7,2.1,4.9,6.8,2.8,10.5l-21.3,36.9C558.3,560.3,553.5,561.6,549.9,559.4z"/>
			<path fill="#ADAFB2" d="M586.5,559.4L586.5,559.4c-3.7-2.1-4.9-6.8-2.8-10.5l21.3-36.9c2.1-3.7,6.8-4.9,10.5-2.8l0,0
				c3.7,2.1,4.9,6.8,2.8,10.5L597,556.6C594.9,560.3,590.2,561.6,586.5,559.4z"/>
		</g>
	</g>
</g>
<g>
	<path fill="#CB5A55" d="M252.4,252.5l-5.3,11.3c-2.2,5.2-4.2,9-6,11.2c-1.8,2.3-3.4,5.1-5,8.5l-5.5,11.9l-4.9,4.9
		c-0.8,1.6-1.2,2.6-1.2,3.1c0,2.3-0.8,5.4-2.5,9.3c-1.7,3.8-3,7.5-3.9,10.8v2.3c0,0.9-1,2.9-3.1,6.1v2.3c0,0.5-1.1,2.9-3.3,7.2
		l0.4,2.3c0,0.3-0.1,0.7-0.4,1.2l-3.7,11.5c-1.2,3.6-1.8,6.3-1.9,7.8c-0.1,1.6-0.2,3-0.3,4.3v3.5l-0.8,4.5l0.4,2.3v1.2
		c0,1.7-0.1,3.1-0.4,4.1c0.8,2.1,1.8,3.5,3.1,4.3c0.5,0,0.9,0.2,1.2,0.5c0.3,0.3,0.5,0.5,0.8,0.5l5.5-3.5c3.8-2.2,6.5-4.6,8.2-7
		l5.7-5.1l1.2-1.8l2.3-0.4c1-1,2.2-2.5,3.6-4.3c1.4-1.8,2.3-2.7,2.8-2.7c0.3,0,0.5,0.1,0.8,0.4h2.7c0.8,0,1.4,0.1,2,0.4l0.4-0.8
		v-3.3c0-4.3,1.4-6.4,4.1-6.4c1.4-2.2,3.2-4.3,5.3-6.3l0.8-2.9c0.3-1,1.7-2.7,4.2-5.1c2.5-2.3,4.7-5.3,6.5-8.8l6.8-8
		c0.3-0.5,0.6-1.5,1.2-2.9l1.6-1.6l3.3,0.4c0.5-0.3,0.8-0.8,0.8-1.6c0-0.3-0.1-0.7-0.4-1.2c-0.3-0.5-0.4-1.3-0.4-2.3
		c0-1.2,1.9-4.3,5.8-9.3c3.8-5,6.3-8.7,7.3-11.1c1-2.4,2.1-3.6,3.1-3.6c0.5,0,0.9,0.5,1.3,1.4c0.3,0.9,0.9,1.4,1.7,1.4
		c0.3,0,0.4-0.1,0.4-0.4c0-0.3-0.2-0.5-0.6-0.8c-0.4-0.3-0.6-0.7-0.6-1.2c0-2.7,0.9-5.5,2.7-8.3c1.8-2.8,3-5,3.6-6.5
		s1.1-2.7,1.7-3.4c0.5-0.7,1.1-1.8,1.8-3.2c0.6-1.4,1.4-2.5,2.3-3.3c0.9-0.8,1.7-1.7,2.2-2.6s1.3-1.7,2.2-2.2
		c0.9-0.5,1.8-2.4,2.5-5.7c0.8-3.3,3.6-7,8.4-11.1c-0.8-0.8-1.2-1.6-1.2-2.3c0-0.5,0.4-1.4,1.2-2.7c0-0.9,2.3-5.7,6.9-14.5
		c4.6-8.7,8.4-15.4,11.4-20.1l0.8-2.7l2.5-2.3l3.5-5.3l10.7-7.2c2.9-1.8,4.9-2.7,6.1-2.7c1.3,0,2.3,0.1,3.1,0.4
		c0.9-0.8,1.6-1.2,2.1-1.2c0.3,0,0.8,0.1,1.6,0.4h0.8c1.3-0.8,2.2-1.2,2.7-1.2c0.5,0,1.2,0.3,2.1,0.8h1.2c1.3,0,3.3,1,6.2,3
		c2.8,2,4.2,3.5,4.2,4.6l-0.4,2.3l0.4,2.3c0,4-1.5,8-4.6,12c-3.1,4-4.9,6.4-5.4,7.3l-2.5,1.2c-0.1,0.4-0.3,1.4-0.5,3
		c-0.2,1.6-0.8,2.9-1.7,3.9c-0.9,1-2,2.8-3.1,5.6s-2.2,4.7-3.1,5.9v2.7l-9.2,22.1c-0.5,1.6-1.1,3-1.9,4.2c-0.7,1.2-1.8,1.9-3.2,1.9
		c0.4,0.7,0.9,1.2,1.5,1.7c0.6,0.5,0.9,1.1,0.9,1.9c0,3.5-1.9,5.8-5.7,6.8c0.8,1,1.2,2,1.2,2.7l1,2.1l-3.7,6.6v3.3
		c-0.9,1.2-1.8,3-2.7,5.5v3.3c0,0.7-0.8,2.3-2.4,5.1l-1.8,3.3c-0.5,1.2-0.9,2.2-1.2,3.1h-0.4l0.4,4.1c-0.3,0.3-1,0.9-2.4,2v3.9
		c-1.3,1.2-2,2.9-2,5.3c0,1-0.7,2.7-2.2,4.9c0.3,1,0.4,1.7,0.4,2c0,3.1-0.5,6-1.6,8.5c-1,2.5-1.6,4.2-1.6,5v2.9
		c0.8,0.8,1.2,1.6,1.2,2.3c0,0.3-0.2,1-0.6,2.2c-0.4,1.2-0.6,2.4-0.6,3.4c0,3.9,0.8,5.9,2.4,5.9l4.5-1.4c1.6-0.5,2.7-1.4,3.3-2.6
		c0.7-1.2,1.7-2.2,3.2-2.8c1.5-0.7,2.3-1.7,2.4-3c0.1-1.4,1.4-2.3,3.8-2.9c2.4-0.6,7.6-4.8,15.5-12.8l6.1-3.5l1.6-2.7
		c1-1,2.8-3.1,5.2-6.1c2.4-3,4.3-4.5,5.8-4.5c3.9,0,5.9,2.1,5.9,6.4c0,0.7-0.6,3.2-1.9,7.6c-1.2,4.4-2.1,6.9-2.6,7.4
		c-0.5,0.5-1.3,1.1-2.3,1.9c-1,0.7-2.1,2.2-3.1,4.4c-6,5.9-10.4,9.2-13.3,10c-0.8,0.5-2.2,1.7-4.3,3.6c-2.1,1.9-3.8,3.2-5.2,4
		s-2.8,1.8-4.2,3.1c-1.4,1.3-3.1,2.3-5.1,2.9l-1.6,0.8c-0.5-0.3-0.9-0.4-1.2-0.4c-0.8,0-1.7,0.6-2.6,1.8c-1,1.2-2.5,2.1-4.4,2.7
		c-2,0.7-3.5,1.5-4.6,2.4c-1.1,1-1.9,1.5-2.5,1.5l-3.1-1.4c-1.6,1.4-2.5,2.1-2.9,2.1l-2.4-1.2c-0.3-0.4-1-0.8-2.2-1.2
		c-1.2-0.4-2.3-1-3.2-1.8c-1-0.8-2.3-1.7-4-2.7c-1.7-1-3.3-3.4-4.7-7.2l-1.6-2c-1.3-2.2-2-3.6-2-4.1c0-0.8,0.1-2.3,0.4-4.7v-1.2
		c0-1.2-0.3-3-0.8-5.6c-0.5-2.5-0.8-4.5-0.8-5.8l4.7-26l-0.8-4.7c0-2,0.8-4.6,2.4-7.9c1.6-3.3,3.2-10.7,4.8-22.2
		c-2.1,6.4-3.7,9.6-4.7,9.6l-2.9-0.4c-0.5,0.3-0.8,0.8-0.8,1.6c0,0.5,0.3,1.6,0.8,3.3v2.7c0,2.5-2.4,4.5-7.2,6.1
		c0,0.3-0.1,0.7-0.4,1.2c1.4,0.7,2.2,1.3,2.2,2c0,3-1.2,5.3-3.6,7c-2.4,1.7-4,3.2-4.8,4.4c-0.8,1.2-1.5,1.9-2.1,1.9l-1.2-1.8h-0.4
		l-2,3.7c0.8,1,1.2,1.7,1.2,2c0,0.5-1.3,2.8-4,6.8c-2.7,4-4.3,6.1-4.8,6.1l-5.7,5.5l-0.8,1.8v2c0,0.3-0.3,0.8-0.8,1.6l-7.6,10.7
		l-2.3,4.5l-8,11.9c-1.3,0.4-2.7,1.4-4.3,2.9L253,382c0,2.1-1.7,4-5.1,5.9c-1.2,3.5-2.8,5.9-4.9,7.2c-2.1,1.3-3.6,2.5-4.7,3.7
		l-3.7,2.3l-4.7,3.9l-5.3,1.8l-2.3-1.8c-1,3-2,4.5-2.7,4.5l-4.5-0.8l-3.7,0.8c-3.1,0-7.2-2.1-12.2-6.3c-5-4.2-8-6.9-8.9-8.2
		l-2.3-3.1c-0.7-0.5-1.2-1.3-1.6-2.4c-0.4-1.1-1.6-2.4-3.7-4l-2-3.1v-2.5c-3.1-4.6-4.9-7.5-5.2-8.9c-0.3-1.4-0.5-4.4-0.5-9.1v-1.6
		l0.8-2.7l-0.4-4.5c0-2.1,0.6-5,1.9-8.8c1.2-3.8,1.9-5.9,1.9-6.4v-1.2l-0.6-1.2l2.5-8.2c0.8-2.9,1.4-4.6,2-5.3
		c0.5-0.7,0.9-2.9,1.2-6.7c0.3-3.8,2.1-5.8,5.7-5.8c0.3,0,0.6,0.1,1.2,0.4c1-0.3,1.6-1,1.6-2.3h-0.8c-1,0-1.6-0.7-1.6-2.1
		c0-1.8,0.4-3.3,1.2-4.3c0.8-1,1.2-2.5,1.2-4.5c0-2.3,1.1-4.7,3.2-7.1c2.1-2.4,3.2-3.7,3.2-4c0-2,1-4.8,3-8.5
		c2-3.7,3.6-7.1,4.9-10.1c1.2-3,2.7-5.7,4.4-8c1.7-2.3,2.9-4.6,3.7-6.8c0.8-2.2,2.3-4.4,4.7-6.6l2.1-3.9c1.6-2.5,3-4.5,4.3-6.1
		c1.3-1.6,2.1-3.5,2.4-5.8c0.3-2.3,1.5-3.9,3.4-4.8c2-0.9,3.1-2.1,3.3-3.4c0.3-1.4,0.7-2.7,1.5-4c0.7-1.3,1.2-2.6,1.5-3.8
		c0.3-1.2,1-2.6,2.3-4.2c1.3-1.6,2.5-3.9,3.6-7.1c1.1-3.2,2.7-4.8,4.8-4.8l3.9,0.4l0.4-1.4c0-0.3-0.3-0.8-1-1.6
		c-0.7-0.8-1-1.6-1-2.3c0-3.8,1.2-5.7,3.7-5.7c0.8,0,1.7,0.8,2.7,2.5c0.9-7.7,1.5-11.7,1.7-12.2c0.2-0.5,0.3-0.9,0.3-1.5l0.4-2
		c0.3-0.5,0.4-1.2,0.4-2.1c0-0.9-0.5-2.1-1.5-3.5c-1-1.4-1.8-2.1-2.4-2.1c-0.1,0-1.6,0.3-4.5,1l-2.3-2.3c-1.3,2.9-2.6,4.3-3.9,4.3
		l-3.3-1.2c-4.6,2.9-7.5,4.3-8.8,4.3l-3.1-1.2h-0.4c-0.8,0-1.6,0.9-2.4,2.8c-0.8,1.9-2.6,2.8-5.2,2.8h-2c-2,2.3-3.6,3.7-4.9,4
		c-1.3,0.3-2.7,1.1-4.2,2.4c-1.5,1.3-2.8,2.1-3.8,2.5c-1,0.4-2.8,1.7-5.3,3.9l-2,1.2c-2.3,1.4-3.6,2.8-3.9,4.2
		c-0.3,1.4-1,2.6-2.1,3.8c-4.7,3.4-7,6.2-7,8.4l0.4,3.5l-0.4,5.1c0,1.4-1.2,3.2-3.6,5.2c-2.4,2-4.4,3-6,3c-9.4,0-14.1-2.8-14.1-8.4
		l0.8-5.7l-0.4-4.5l0.4-3.9c0-3,1.8-5.8,5.4-8.5c3.6-2.7,6-4.7,7.3-6l7.6-3.9c1.7-1.3,3-2.6,3.9-4s3.8-3.1,8.6-5.1
		c4.8-2,8.3-4,10.6-6s5.5-3.7,9.8-5.2c4.3-1.5,7.6-2.8,9.9-4c2.3-1.2,3.7-1.8,4.2-1.8l2.3,0.4c1.3-0.5,2.7-1.3,4.2-2.4
		c1.5-1.1,3.2-1.7,5-1.7l24-5.5c2.5-0.6,7.2,0.8,14.1,4.3c6.9,3.5,10.4,11.3,10.4,23.2c0,2.5-2,7.8-6,16c-4,8.2-8.4,15.5-13.2,21.9
		l-1.2,2.9l-5.3,9.2l-3.1,6.8c-1.4,2.6-2.9,5.7-4.5,9.2l-3.5,4.7C253.7,248.8,252.8,250.9,252.4,252.5z"/>
</g>
</svg>
